<svg xmlns="http://www.w3.org/2000/svg" viewBox="0 0 200 200" width="200" height="200">
  <!-- Circular badge background -->
  <circle cx="100" cy="100" r="95" fill="#2d5016" stroke="#4a7c59" stroke-width="3"/>
  
  <!-- Sun/Clock face -->
  <circle cx="100" cy="70" r="35" fill="#FFD700"/>
  
  <!-- Clock hands (subtle) -->
  <line x1="100" y1="70" x2="100" y2="50" stroke="#2d5016" stroke-width="3" stroke-linecap="round"/>
  <line x1="100" y1="70" x2="115" y2="75" stroke="#2d5016" stroke-width="2" stroke-linecap="round"/>
  
  <!-- Mountain silhouettes -->
  <path d="M 30 130 L 70 80 L 90 100 L 110 70 L 130 95 L 150 75 L 170 130 Z" 
        fill="#4a7c59" opacity="0.9"/>
  <path d="M 40 130 L 75 90 L 100 110 L 125 85 L 160 130 Z" 
        fill="#5a8c69" opacity="0.8"/>
  
  <!-- Pine trees in foreground -->
  <!-- Left tree -->
  <path d="M 50 130 L 55 115 L 52 115 L 57 100 L 54 100 L 60 85 L 66 100 L 63 100 L 68 115 L 65 115 L 70 130 Z" 
        fill="#1a3a0a"/>
  
  <!-- Center-left tree -->
  <path d="M 75 135 L 79 122 L 77 122 L 81 110 L 79 110 L 83 98 L 87 110 L 85 110 L 89 122 L 87 122 L 91 135 Z" 
        fill="#1a3a0a"/>
  
  <!-- Center-right tree -->
  <path d="M 110 135 L 114 122 L 112 122 L 116 110 L 114 110 L 118 98 L 122 110 L 120 110 L 124 122 L 122 122 L 126 135 Z" 
        fill="#1a3a0a"/>
  
  <!-- Right tree -->
  <path d="M 135 130 L 140 115 L 137 115 L 142 100 L 139 100 L 145 85 L 151 100 L 148 100 L 153 115 L 150 115 L 155 130 Z" 
        fill="#1a3a0a"/>
  
  <!-- Ground/horizon line -->
  <ellipse cx="100" cy="135" rx="70" ry="8" fill="#1a3a0a" opacity="0.3"/>
</svg>